<mxfile host="app.diagrams.net" modified="2022-11-04T16:00:35.633Z" agent="5.0 (Macintosh; Intel Mac OS X 10_15_7) AppleWebKit/537.36 (KHTML, like Gecko) Chrome/106.0.0.0 Safari/537.36" etag="lzgwfNsc92fA6bmaKM9C" version="20.4.1" type="github">
  <diagram id="uCUmhPaclYyrkWVYoByS" name="Page-1">
    <mxGraphModel dx="1272" dy="690" grid="1" gridSize="10" guides="1" tooltips="1" connect="1" arrows="1" fold="1" page="1" pageScale="1" pageWidth="850" pageHeight="1100" math="0" shadow="0">
      <root>
        <mxCell id="0" />
        <mxCell id="1" parent="0" />
        <mxCell id="PGNGUmruBmEjUjXc-qWK-28" style="edgeStyle=orthogonalEdgeStyle;rounded=0;orthogonalLoop=1;jettySize=auto;html=1;dashed=1;" edge="1" parent="1" source="PGNGUmruBmEjUjXc-qWK-27" target="PGNGUmruBmEjUjXc-qWK-30">
          <mxGeometry relative="1" as="geometry">
            <mxPoint x="465" y="480" as="targetPoint" />
          </mxGeometry>
        </mxCell>
        <mxCell id="PGNGUmruBmEjUjXc-qWK-35" style="edgeStyle=orthogonalEdgeStyle;rounded=0;orthogonalLoop=1;jettySize=auto;html=1;" edge="1" parent="1" source="PGNGUmruBmEjUjXc-qWK-2" target="PGNGUmruBmEjUjXc-qWK-32">
          <mxGeometry relative="1" as="geometry" />
        </mxCell>
        <mxCell id="PGNGUmruBmEjUjXc-qWK-2" value="User" style="points=[[0.13,0.02,0],[0.5,0,0],[0.87,0.02,0],[0.885,0.4,0],[0.985,0.985,0],[0.5,1,0],[0.015,0.985,0],[0.115,0.4,0]];verticalLabelPosition=bottom;sketch=0;html=1;verticalAlign=top;aspect=fixed;align=center;pointerEvents=1;shape=mxgraph.cisco19.laptop;fillColor=#005073;strokeColor=none;" vertex="1" parent="1">
          <mxGeometry x="50" y="797.5" width="50" height="35" as="geometry" />
        </mxCell>
        <mxCell id="PGNGUmruBmEjUjXc-qWK-12" value="User - Testing" style="points=[[0.13,0.02,0],[0.5,0,0],[0.87,0.02,0],[0.885,0.4,0],[0.985,0.985,0],[0.5,1,0],[0.015,0.985,0],[0.115,0.4,0]];verticalLabelPosition=bottom;sketch=0;html=1;verticalAlign=top;aspect=fixed;align=center;pointerEvents=1;shape=mxgraph.cisco19.laptop;fillColor=#005073;strokeColor=none;" vertex="1" parent="1">
          <mxGeometry x="60" y="486" width="50" height="35" as="geometry" />
        </mxCell>
        <mxCell id="PGNGUmruBmEjUjXc-qWK-13" value="" style="endArrow=classic;html=1;rounded=0;exitX=0.885;exitY=0.4;exitDx=0;exitDy=0;exitPerimeter=0;entryX=0;entryY=0.5;entryDx=0;entryDy=0;entryPerimeter=0;" edge="1" parent="1" source="PGNGUmruBmEjUjXc-qWK-12" target="PGNGUmruBmEjUjXc-qWK-11">
          <mxGeometry width="50" height="50" relative="1" as="geometry">
            <mxPoint x="120" y="530" as="sourcePoint" />
            <mxPoint x="170" y="480" as="targetPoint" />
          </mxGeometry>
        </mxCell>
        <mxCell id="PGNGUmruBmEjUjXc-qWK-29" value="" style="group" vertex="1" connectable="0" parent="1">
          <mxGeometry x="135" y="60" width="420" height="140" as="geometry" />
        </mxCell>
        <mxCell id="PGNGUmruBmEjUjXc-qWK-27" value="" style="rounded=0;whiteSpace=wrap;html=1;fillColor=none;" vertex="1" parent="PGNGUmruBmEjUjXc-qWK-29">
          <mxGeometry width="419.99999999999994" height="140" as="geometry" />
        </mxCell>
        <mxCell id="PGNGUmruBmEjUjXc-qWK-15" value="Source - Github" style="verticalLabelPosition=bottom;html=1;verticalAlign=top;align=left;strokeColor=none;fillColor=#00BEF2;shape=mxgraph.azure.git_repository;horizontal=0;direction=south;rotation=90;" vertex="1" parent="PGNGUmruBmEjUjXc-qWK-29">
          <mxGeometry x="4.8" y="6.17" width="28.03" height="30" as="geometry" />
        </mxCell>
        <mxCell id="PGNGUmruBmEjUjXc-qWK-36" style="edgeStyle=orthogonalEdgeStyle;rounded=0;orthogonalLoop=1;jettySize=auto;html=1;entryX=0.5;entryY=0;entryDx=0;entryDy=0;dashed=1;fontColor=#009900;" edge="1" parent="1" source="PGNGUmruBmEjUjXc-qWK-30" target="PGNGUmruBmEjUjXc-qWK-31">
          <mxGeometry relative="1" as="geometry" />
        </mxCell>
        <mxCell id="PGNGUmruBmEjUjXc-qWK-30" value="Beta - AWS" style="points=[[0,0],[0.25,0],[0.5,0],[0.75,0],[1,0],[1,0.25],[1,0.5],[1,0.75],[1,1],[0.75,1],[0.5,1],[0.25,1],[0,1],[0,0.75],[0,0.5],[0,0.25]];outlineConnect=0;gradientColor=none;html=1;whiteSpace=wrap;fontSize=12;fontStyle=0;container=1;pointerEvents=0;collapsible=0;recursiveResize=0;shape=mxgraph.aws4.group;grIcon=mxgraph.aws4.group_elastic_beanstalk;strokeColor=#D86613;fillColor=none;verticalAlign=top;align=left;spacingLeft=30;fontColor=#D86613;dashed=0;" vertex="1" parent="1">
          <mxGeometry x="150" y="418.5" width="390" height="170" as="geometry" />
        </mxCell>
        <mxCell id="PGNGUmruBmEjUjXc-qWK-11" value="Elastic Beanstalk" style="sketch=0;points=[[0,0,0],[0.25,0,0],[0.5,0,0],[0.75,0,0],[1,0,0],[0,1,0],[0.25,1,0],[0.5,1,0],[0.75,1,0],[1,1,0],[0,0.25,0],[0,0.5,0],[0,0.75,0],[1,0.25,0],[1,0.5,0],[1,0.75,0]];outlineConnect=0;fontColor=#232F3E;gradientColor=#F78E04;gradientDirection=north;fillColor=#D05C17;strokeColor=#ffffff;dashed=0;verticalLabelPosition=bottom;verticalAlign=top;align=center;html=1;fontSize=12;fontStyle=0;aspect=fixed;shape=mxgraph.aws4.resourceIcon;resIcon=mxgraph.aws4.elastic_beanstalk;" vertex="1" parent="PGNGUmruBmEjUjXc-qWK-30">
          <mxGeometry x="150" y="41.5" width="78" height="78" as="geometry" />
        </mxCell>
        <mxCell id="PGNGUmruBmEjUjXc-qWK-31" value="&lt;font color=&quot;#009900&quot;&gt;Prod - AWS&lt;/font&gt;" style="points=[[0,0],[0.25,0],[0.5,0],[0.75,0],[1,0],[1,0.25],[1,0.5],[1,0.75],[1,1],[0.75,1],[0.5,1],[0.25,1],[0,1],[0,0.75],[0,0.5],[0,0.25]];outlineConnect=0;gradientColor=none;html=1;whiteSpace=wrap;fontSize=12;fontStyle=0;container=1;pointerEvents=0;collapsible=0;recursiveResize=0;shape=mxgraph.aws4.group;grIcon=mxgraph.aws4.group_elastic_beanstalk;strokeColor=#009900;fillColor=none;verticalAlign=top;align=left;spacingLeft=30;fontColor=#D86613;dashed=0;" vertex="1" parent="1">
          <mxGeometry x="150" y="740" width="390" height="150" as="geometry" />
        </mxCell>
        <mxCell id="PGNGUmruBmEjUjXc-qWK-32" value="Elastic Beanstalk" style="sketch=0;points=[[0,0,0],[0.25,0,0],[0.5,0,0],[0.75,0,0],[1,0,0],[0,1,0],[0.25,1,0],[0.5,1,0],[0.75,1,0],[1,1,0],[0,0.25,0],[0,0.5,0],[0,0.75,0],[1,0.25,0],[1,0.5,0],[1,0.75,0]];outlineConnect=0;fontColor=#232F3E;gradientColor=#F78E04;gradientDirection=north;fillColor=#D05C17;strokeColor=#ffffff;dashed=0;verticalLabelPosition=bottom;verticalAlign=top;align=center;html=1;fontSize=12;fontStyle=0;aspect=fixed;shape=mxgraph.aws4.resourceIcon;resIcon=mxgraph.aws4.elastic_beanstalk;" vertex="1" parent="PGNGUmruBmEjUjXc-qWK-31">
          <mxGeometry x="156" y="36" width="78" height="78" as="geometry" />
        </mxCell>
        <mxCell id="PGNGUmruBmEjUjXc-qWK-10" style="edgeStyle=orthogonalEdgeStyle;rounded=0;orthogonalLoop=1;jettySize=auto;html=1;entryX=0;entryY=0.5;entryDx=0;entryDy=0;" edge="1" parent="1" source="PGNGUmruBmEjUjXc-qWK-11" target="PGNGUmruBmEjUjXc-qWK-42">
          <mxGeometry relative="1" as="geometry">
            <mxPoint x="770" y="690" as="targetPoint" />
            <Array as="points">
              <mxPoint x="570" y="510" />
              <mxPoint x="570" y="620" />
            </Array>
          </mxGeometry>
        </mxCell>
        <mxCell id="PGNGUmruBmEjUjXc-qWK-37" value="S3" style="sketch=0;points=[[0,0,0],[0.25,0,0],[0.5,0,0],[0.75,0,0],[1,0,0],[0,1,0],[0.25,1,0],[0.5,1,0],[0.75,1,0],[1,1,0],[0,0.25,0],[0,0.5,0],[0,0.75,0],[1,0.25,0],[1,0.5,0],[1,0.75,0]];outlineConnect=0;fontColor=#232F3E;gradientColor=#60A337;gradientDirection=north;fillColor=#277116;strokeColor=#ffffff;dashed=0;verticalLabelPosition=bottom;verticalAlign=top;align=center;html=1;fontSize=12;fontStyle=0;aspect=fixed;shape=mxgraph.aws4.resourceIcon;resIcon=mxgraph.aws4.s3;" vertex="1" parent="1">
          <mxGeometry x="700" y="679" width="78" height="78" as="geometry" />
        </mxCell>
        <mxCell id="PGNGUmruBmEjUjXc-qWK-40" style="edgeStyle=orthogonalEdgeStyle;rounded=0;orthogonalLoop=1;jettySize=auto;html=1;fontColor=#009900;" edge="1" parent="1" source="PGNGUmruBmEjUjXc-qWK-39" target="PGNGUmruBmEjUjXc-qWK-37">
          <mxGeometry relative="1" as="geometry" />
        </mxCell>
        <mxCell id="PGNGUmruBmEjUjXc-qWK-39" value="Sagemaker Studio" style="sketch=0;points=[[0,0,0],[0.25,0,0],[0.5,0,0],[0.75,0,0],[1,0,0],[0,1,0],[0.25,1,0],[0.5,1,0],[0.75,1,0],[1,1,0],[0,0.25,0],[0,0.5,0],[0,0.75,0],[1,0.25,0],[1,0.5,0],[1,0.75,0]];outlineConnect=0;fontColor=#232F3E;gradientColor=#4AB29A;gradientDirection=north;fillColor=#116D5B;strokeColor=#ffffff;dashed=0;verticalLabelPosition=bottom;verticalAlign=top;align=center;html=1;fontSize=12;fontStyle=0;aspect=fixed;shape=mxgraph.aws4.resourceIcon;resIcon=mxgraph.aws4.sagemaker_studio_lab;" vertex="1" parent="1">
          <mxGeometry x="700" y="489" width="78" height="78" as="geometry" />
        </mxCell>
        <mxCell id="PGNGUmruBmEjUjXc-qWK-41" style="edgeStyle=orthogonalEdgeStyle;rounded=0;orthogonalLoop=1;jettySize=auto;html=1;exitX=0.5;exitY=1;exitDx=0;exitDy=0;exitPerimeter=0;fontColor=#009900;" edge="1" parent="1" source="PGNGUmruBmEjUjXc-qWK-37" target="PGNGUmruBmEjUjXc-qWK-37">
          <mxGeometry relative="1" as="geometry" />
        </mxCell>
        <mxCell id="PGNGUmruBmEjUjXc-qWK-42" value="&lt;font color=&quot;#a680b8&quot;&gt;Model Training&lt;br&gt;Model Endpoint&lt;/font&gt;" style="points=[[0,0],[0.25,0],[0.5,0],[0.75,0],[1,0],[1,0.25],[1,0.5],[1,0.75],[1,1],[0.75,1],[0.5,1],[0.25,1],[0,1],[0,0.75],[0,0.5],[0,0.25]];outlineConnect=0;gradientColor=none;html=1;whiteSpace=wrap;fontSize=12;fontStyle=0;container=1;pointerEvents=0;collapsible=0;recursiveResize=0;shape=mxgraph.aws4.group;grIcon=mxgraph.aws4.group_elastic_beanstalk;strokeColor=#A680B8;fillColor=none;verticalAlign=top;align=left;spacingLeft=30;fontColor=#D86613;dashed=0;" vertex="1" parent="1">
          <mxGeometry x="650" y="430" width="180" height="379" as="geometry" />
        </mxCell>
        <mxCell id="PGNGUmruBmEjUjXc-qWK-44" style="edgeStyle=orthogonalEdgeStyle;rounded=0;orthogonalLoop=1;jettySize=auto;html=1;fontColor=#A680B8;" edge="1" parent="1" source="PGNGUmruBmEjUjXc-qWK-32" target="PGNGUmruBmEjUjXc-qWK-42">
          <mxGeometry relative="1" as="geometry">
            <Array as="points">
              <mxPoint x="570" y="815" />
              <mxPoint x="570" y="620" />
            </Array>
          </mxGeometry>
        </mxCell>
      </root>
    </mxGraphModel>
  </diagram>
</mxfile>
